<svg xmlns="http://www.w3.org/2000/svg" viewBox="0 0 620 200" width="620" height="200">
  <rect x="165" y="100" width="70" height="12" rx="6" fill="#2f6fed" opacity="1" transform="rotate(30 235 106)"/>
  <rect x="175" y="100" width="60" height="12" rx="6" fill="#2f6fed" opacity="0.85" transform="rotate(10 235 106)"/>
  <rect x="185" y="100" width="50" height="12" rx="6" fill="#2f6fed" opacity="0.7" transform="rotate(-10 235 106)"/>
  <rect x="197" y="100" width="38" height="12" rx="6" fill="#2f6fed" opacity="0.55" transform="rotate(-30 235 106)"/>

  <rect x="385" y="100" width="70" height="12" rx="6" fill="#2f6fed" opacity="1" transform="rotate(-30 385 106)"/>
  <rect x="385" y="100" width="60" height="12" rx="6" fill="#2f6fed" opacity="0.85" transform="rotate(-10 385 106)"/>
  <rect x="385" y="100" width="50" height="12" rx="6" fill="#2f6fed" opacity="0.7" transform="rotate(10 385 106)"/>
  <rect x="385" y="100" width="38" height="12" rx="6" fill="#2f6fed" opacity="0.55" transform="rotate(30 385 106)"/>

  <text x="310" y="118" text-anchor="middle" font-family="-apple-system, 'Pretendard', 'Apple SD Gothic Neo', sans-serif" font-size="44" font-weight="800" fill="#2f6fed">픽천국</text>
  <text x="310" y="143" text-anchor="middle" font-family="-apple-system, 'Pretendard', 'Apple SD Gothic Neo', sans-serif" font-size="12" letter-spacing="3" fill="#94a3b8">PICK HEAVEN</text>
</svg>
