<svg xmlns="http://www.w3.org/2000/svg" viewBox="0 0 1263 831" width="1263" height="831">
  <path d="M 891.80,60.36 L 888.20,68.64 L 887.60,72.24 L 889.40,74.76 L 893.00,75.36 L 902.00,74.64 L 906.24,75.20 L 909.96,77.60 L 911.92,81.04 L 914.08,88.96 L 913.28,94.04 L 908.72,101.36 L 901.92,108.48 L 886.08,122.52 L 877.04,129.00 L 865.76,134.40 L 856.00,136.92 L 838.00,139.08 L 828.92,141.00 L 819.68,144.60 L 813.36,148.68 L 803.64,157.32 L 798.96,160.72 L 794.64,162.28 L 792.12,161.48 L 788.88,157.52 L 789.08,153.84 L 792.92,146.76 L 799.12,138.64 L 813.88,121.36 L 820.04,113.40 L 823.76,106.80 L 823.80,103.76 L 820.20,101.24 L 817.32,100.72 L 812.28,101.68 L 806.76,103.80 L 795.24,109.20 L 787.76,114.28 L 776.84,124.12 L 766.12,135.44 L 744.88,159.56 L 733.32,169.24 L 719.88,174.16 L 709.04,172.68 L 689.96,163.32 L 679.56,160.84 L 667.44,162.76 L 657.64,168.44 L 640.36,183.56 L 632.32,191.44 L 625.48,199.96 L 622.12,206.28 L 618.88,216.72 L 614.44,223.36 L 604.36,232.84 L 592.00,242.00 L 565.00,260.00 L 552.64,268.80 L 542.56,277.20 L 538.12,282.40 L 534.88,289.60 L 533.96,292.40 L 534.44,293.60 L 536.16,292.80 L 540.84,289.20 L 544.44,288.60 L 550.56,290.40 L 557.16,294.00 L 570.84,303.00 L 576.52,307.44 L 579.88,311.76 L 579.80,314.52 L 576.20,318.48 L 575.16,321.32 L 575.64,325.88 L 577.48,330.64 L 582.52,340.36 L 583.72,344.80 L 582.28,348.40 L 578.68,349.96 L 569.32,351.04 L 565.52,353.28 L 563.48,358.92 L 563.88,366.08 L 567.12,381.92 L 567.24,391.16 L 564.36,403.04 L 559.44,413.60 L 547.56,433.40 L 542.16,444.04 L 537.84,456.16 L 536.04,465.72 L 534.96,482.28 L 535.60,491.32 L 538.60,501.88 L 542.96,510.44 L 553.04,525.56 L 559.32,531.92 L 568.08,535.88 L 576.40,536.12 L 592.60,532.88 L 600.48,531.88 L 607.92,532.12 L 612.44,533.52 L 618.56,537.48 L 621.60,543.16 L 624.60,556.24 L 626.56,572.36 L 629.44,607.64 L 631.48,625.96 L 634.72,645.64 L 638.08,660.12 L 644.92,683.88 L 648.72,694.68 L 653.28,703.32 L 657.08,706.92 L 663.92,709.08 L 666.80,710.84 L 668.60,713.96 L 668.72,717.40 L 667.28,724.60 L 668.20,725.20 L 672.40,719.80 L 678.48,710.20 L 692.52,686.80 L 699.76,675.80 L 707.44,666.20 L 713.00,661.20 L 722.00,655.80 L 726.48,654.08 L 730.92,654.32 L 733.84,656.44 L 738.16,662.56 L 740.64,665.12 L 743.76,666.68 L 746.48,666.72 L 751.52,665.28 L 753.92,662.32 L 756.08,654.88 L 757.28,645.44 L 758.72,624.56 L 757.80,616.96 L 753.60,615.04 L 747.52,619.44 L 733.48,634.56 L 727.04,640.68 L 721.76,643.92 L 719.40,643.20 L 717.60,637.80 L 717.28,635.16 L 718.12,632.64 L 719.84,631.08 L 724.16,628.92 L 726.04,625.96 L 727.36,619.24 L 727.68,611.00 L 727.32,593.00 L 729.68,580.96 L 737.12,562.84 L 747.16,544.68 L 769.84,508.32 L 779.92,491.12 L 787.48,475.88 L 790.00,467.68 L 790.00,458.32 L 791.08,454.12 L 794.32,450.88 L 798.64,449.68 L 808.36,449.32 L 813.56,449.92 L 819.44,452.08 L 824.04,455.08 L 831.96,461.92 L 835.84,467.08 L 839.56,475.72 L 841.88,484.96 L 845.12,504.04 L 845.44,514.32 L 843.16,526.08 L 839.04,535.40 L 828.96,551.60 L 825.24,557.96 L 824.16,560.84 L 826.08,559.28 L 832.92,551.72 L 836.40,548.88 L 840.00,547.92 L 842.52,549.16 L 846.48,553.84 L 849.00,554.88 L 852.60,553.32 L 856.08,549.68 L 862.92,540.32 L 865.96,534.44 L 868.24,526.16 L 869.00,518.24 L 869.00,502.76 L 870.28,494.76 L 874.12,486.24 L 879.24,480.04 L 890.76,469.96 L 896.28,466.52 L 901.32,466.28 L 904.20,469.32 L 907.80,478.68 L 909.92,482.88 L 912.68,486.12 L 915.16,487.32 L 919.84,487.68 L 922.04,489.48 L 923.96,494.52 L 924.96,501.12 L 926.04,515.88 L 926.08,522.64 L 925.12,528.16 L 923.48,530.60 L 919.52,532.40 L 919.28,535.32 L 922.52,542.28 L 928.16,550.96 L 941.84,570.04 L 949.48,578.72 L 958.72,585.68 L 966.48,588.60 L 980.52,590.40 L 985.00,593.64 L 984.40,601.56 L 978.92,611.52 L 963.08,633.48 L 956.68,643.16 L 953.32,650.24 L 954.12,652.36 L 959.88,651.64 L 962.00,652.08 L 962.60,654.12 L 961.48,657.08 L 957.52,663.92 L 956.52,666.64 L 957.48,667.96 L 960.08,667.44 L 966.92,664.56 L 970.32,664.76 L 973.68,668.24 L 975.88,673.84 L 979.12,687.16 L 982.84,692.48 L 990.76,695.12 L 1000.24,694.20 L 1020.76,688.80 L 1031.52,687.64 L 1043.28,689.56 L 1052.12,693.92 L 1066.88,705.08 L 1072.48,712.60 L 1074.52,724.00 L 1072.32,735.48 L 1063.68,758.52 L 1061.16,767.16 L 1062.24,770.04 L 1066.56,766.20 L 1078.44,751.80 L 1084.68,741.80 L 1091.52,726.20 L 1096.68,710.20 L 1105.32,677.80 L 1108.24,662.36 L 1108.36,648.44 L 1105.64,640.68 L 1097.36,631.32 L 1094.84,625.00 L 1095.56,615.40 L 1099.28,605.72 L 1109.72,586.28 L 1113.76,577.44 L 1115.44,570.36 L 1114.20,567.40 L 1108.80,565.60 L 1105.96,565.48 L 1102.84,566.92 L 1100.48,569.44 L 1096.52,575.56 L 1093.92,577.40 L 1090.08,576.80 L 1086.28,573.96 L 1078.72,566.04 L 1073.56,562.68 L 1065.64,560.52 L 1057.60,560.28 L 1041.40,561.72 L 1034.24,561.60 L 1028.96,559.80 L 1027.32,556.92 L 1027.68,550.08 L 1027.12,547.08 L 1025.08,544.92 L 1022.24,544.32 L 1015.76,544.68 L 1013.40,543.68 L 1012.80,540.32 L 1014.16,535.72 L 1018.84,525.28 L 1020.28,519.12 L 1019.92,511.08 L 1017.88,503.84 L 1012.12,490.16 L 1008.28,484.56 L 1002.52,481.44 L 996.76,481.84 L 985.24,486.16 L 980.48,488.68 L 977.72,491.92 L 977.88,494.80 L 981.12,500.20 L 981.44,501.96 L 979.16,501.84 L 975.04,499.88 L 964.96,494.12 L 961.16,491.44 L 959.84,489.16 L 961.44,488.04 L 967.56,486.96 L 971.08,485.24 L 975.52,481.16 L 979.40,476.08 L 986.60,464.92 L 990.24,460.20 L 993.96,457.20 L 996.52,456.92 L 1000.48,459.08 L 1003.76,458.16 L 1009.64,453.24 L 1016.16,445.96 L 1029.84,429.04 L 1036.24,422.40 L 1041.76,419.40 L 1044.56,421.04 L 1047.44,428.96 L 1049.64,429.84 L 1053.36,424.56 L 1057.36,414.88 L 1065.64,391.12 L 1071.56,378.40 L 1081.04,364.00 L 1090.92,352.72 L 1111.08,333.28 L 1120.56,322.64 L 1128.84,310.16 L 1133.16,300.00 L 1137.84,282.00 L 1142.80,272.68 L 1153.00,262.72 L 1165.04,255.44 L 1190.96,243.56 L 1201.88,240.80 L 1208.72,244.40 L 1209.20,253.16 L 1203.80,275.84 L 1203.12,284.12 L 1206.48,286.28 L 1212.76,281.60 L 1228.24,265.40 L 1235.12,257.32 L 1240.28,249.28 L 1242.00,243.96 L 1242.00,236.04 L 1240.40,231.56 L 1235.60,226.04 L 1229.20,221.32 L 1214.80,212.68 L 1208.72,207.96 L 1204.88,202.44 L 1204.56,197.96 L 1207.44,190.04 L 1207.04,187.36 L 1202.96,187.24 L 1196.56,189.72 L 1181.44,197.28 L 1173.40,200.28 L 1164.40,201.72 L 1157.44,201.12 L 1145.56,197.88 L 1140.08,195.84 L 1135.52,192.96 L 1133.40,190.20 L 1131.60,184.80 L 1129.16,181.72 L 1123.64,177.88 L 1116.88,174.56 L 1102.12,168.44 L 1096.12,164.72 L 1092.88,159.68 L 1093.48,155.00 L 1098.52,146.00 L 1098.96,141.48 L 1095.24,136.92 L 1088.60,133.84 L 1072.40,129.16 L 1064.36,127.96 L 1056.44,129.04 L 1051.28,132.04 L 1043.72,139.96 L 1038.64,143.56 L 1030.96,146.44 L 1023.24,147.64 L 1007.76,148.36 L 1000.12,148.08 L 992.68,146.52 L 987.92,144.20 L 981.08,138.80 L 978.00,135.48 L 975.60,130.92 L 974.68,126.64 L 974.32,118.36 L 973.20,114.56 L 970.20,111.44 L 966.32,110.04 L 957.68,108.96 L 953.84,107.52 L 950.96,104.28 L 950.00,100.32 L 950.00,91.68 L 948.84,86.68 L 945.36,80.32 L 940.72,74.72 L 930.28,64.28 L 924.60,59.56 L 918.00,55.84 L 912.68,54.36 L 903.32,53.64 L 898.76,54.24 L 894.44,56.76 Z" fill="#2C4A66"/>
  <path d="M 468.68,22.24 L 450.32,24.76 L 441.96,26.36 L 435.24,28.64 L 432.40,30.84 L 430.60,35.16 L 428.16,37.44 L 422.64,39.96 L 415.88,41.88 L 401.12,45.12 L 394.32,46.08 L 388.68,45.72 L 386.08,44.16 L 383.92,39.84 L 380.92,37.80 L 374.08,36.00 L 365.68,35.04 L 347.32,33.96 L 337.32,34.12 L 325.68,35.68 L 316.28,38.12 L 299.72,43.88 L 292.20,46.96 L 286.20,50.44 L 283.72,53.16 L 282.28,57.84 L 281.20,59.84 L 279.40,61.16 L 277.48,61.36 L 273.52,60.64 L 270.00,61.64 L 263.40,65.36 L 255.92,70.56 L 240.08,82.44 L 232.32,87.72 L 224.88,91.68 L 220.24,93.00 L 213.76,93.00 L 207.72,96.40 L 196.08,106.60 L 182.72,120.20 L 154.28,150.80 L 141.84,164.56 L 132.96,175.24 L 130.60,179.28 L 132.40,180.72 L 134.40,180.00 L 138.60,176.40 L 143.60,171.12 L 154.40,158.88 L 159.24,154.44 L 162.96,153.36 L 164.32,156.00 L 164.68,165.00 L 165.24,169.40 L 166.56,173.60 L 168.20,176.20 L 171.80,179.80 L 171.36,181.88 L 166.44,184.52 L 158.68,186.84 L 140.32,191.16 L 129.52,192.72 L 115.48,193.08 L 102.88,192.12 L 79.12,188.88 L 67.04,188.48 L 54.56,190.52 L 45.84,194.32 L 32.16,203.68 L 26.08,210.04 L 21.52,219.76 L 20.00,229.60 L 20.00,249.40 L 21.48,258.48 L 25.92,265.92 L 31.84,269.24 L 45.16,271.76 L 50.00,273.96 L 51.20,278.04 L 48.36,282.64 L 38.64,292.36 L 36.92,295.28 L 41.48,294.32 L 50.80,289.80 L 74.20,277.20 L 85.76,271.68 L 97.04,267.72 L 104.28,266.64 L 114.72,267.36 L 120.00,269.12 L 125.40,273.68 L 129.12,279.52 L 134.88,292.48 L 137.88,298.12 L 141.12,302.08 L 143.52,303.04 L 147.48,301.96 L 149.32,302.12 L 150.88,303.68 L 151.64,306.12 L 152.36,311.88 L 153.28,314.76 L 155.32,317.64 L 157.80,319.56 L 163.20,322.44 L 165.76,326.24 L 168.04,334.76 L 169.28,345.16 L 170.72,367.84 L 172.80,380.40 L 177.60,395.40 L 183.52,407.84 L 196.48,430.16 L 202.72,439.80 L 208.48,446.40 L 211.84,447.76 L 216.16,445.24 L 218.92,445.52 L 222.88,448.88 L 226.72,454.20 L 234.28,466.80 L 238.88,472.80 L 245.12,478.20 L 250.92,481.20 L 262.08,484.80 L 268.60,487.80 L 277.00,493.20 L 284.48,499.20 L 298.52,511.80 L 303.12,519.72 L 302.88,530.88 L 297.88,541.56 L 283.12,562.44 L 278.88,569.56 L 280.92,570.04 L 288.56,563.72 L 309.44,544.28 L 318.24,537.80 L 323.76,537.80 L 324.16,544.28 L 319.84,563.72 L 319.20,574.12 L 321.60,585.88 L 326.24,595.08 L 337.76,610.92 L 342.36,624.40 L 344.64,649.00 L 343.84,676.52 L 339.16,734.48 L 337.88,761.20 L 338.72,783.40 L 341.40,793.68 L 348.60,802.32 L 352.36,806.16 L 356.44,809.04 L 359.48,810.00 L 364.52,810.00 L 366.32,808.96 L 366.68,805.84 L 365.48,801.68 L 361.52,792.32 L 360.28,787.48 L 360.52,782.32 L 362.16,778.56 L 366.84,772.44 L 369.04,768.60 L 370.96,763.20 L 371.96,758.04 L 373.04,747.96 L 373.96,743.36 L 375.64,739.64 L 377.52,738.04 L 381.48,736.96 L 385.64,733.24 L 394.16,723.16 L 404.20,710.08 L 425.80,680.92 L 436.52,665.16 L 447.08,647.04 L 453.96,632.60 L 464.04,607.40 L 466.80,595.12 L 465.00,583.48 L 459.24,576.36 L 443.76,566.64 L 435.12,560.52 L 424.68,551.88 L 415.92,543.60 L 400.08,527.40 L 391.60,519.76 L 382.00,513.04 L 374.48,509.48 L 361.52,505.52 L 356.36,503.52 L 353.84,501.48 L 354.80,500.08 L 360.20,497.92 L 360.84,495.60 L 357.36,490.80 L 350.92,485.12 L 335.08,472.88 L 327.88,465.64 L 322.12,456.16 L 319.72,447.60 L 318.28,431.40 L 318.28,423.68 L 319.72,416.72 L 322.12,412.84 L 327.88,408.16 L 330.52,405.16 L 332.68,400.84 L 333.64,396.64 L 334.36,388.36 L 335.64,383.40 L 338.76,376.80 L 342.68,370.76 L 351.32,359.24 L 356.04,354.04 L 361.56,349.96 L 366.04,348.36 L 373.96,347.64 L 377.80,346.56 L 381.40,344.04 L 383.56,340.92 L 386.44,334.08 L 388.32,331.20 L 391.08,329.40 L 393.80,329.28 L 399.20,330.72 L 401.04,332.28 L 401.16,335.52 L 399.52,339.36 L 394.48,347.64 L 393.00,351.04 L 393.60,352.96 L 396.08,352.76 L 402.92,350.24 L 406.16,348.04 L 409.04,343.96 L 410.60,339.36 L 412.40,329.64 L 412.64,324.88 L 411.56,320.32 L 409.52,317.48 L 404.48,313.52 L 404.24,309.12 L 408.56,299.88 L 416.00,288.88 L 434.00,265.12 L 442.24,253.36 L 448.96,241.84 L 451.92,234.40 L 454.08,223.60 L 456.04,217.76 L 459.76,211.04 L 464.00,205.68 L 473.00,196.32 L 477.48,192.08 L 481.92,188.72 L 484.84,187.36 L 489.16,186.64 L 490.72,186.92 L 491.08,188.48 L 490.12,190.80 L 486.88,196.20 L 485.60,199.20 L 485.00,202.80 L 485.28,205.80 L 486.72,211.20 L 488.04,213.48 L 490.56,214.92 L 493.44,215.04 L 499.56,213.96 L 503.00,214.40 L 507.20,216.80 L 510.76,220.36 L 517.24,228.64 L 521.08,231.08 L 526.12,230.12 L 530.68,226.08 L 539.32,214.92 L 543.12,209.64 L 545.88,204.96 L 546.68,202.44 L 546.32,199.56 L 545.52,198.20 L 543.48,197.00 L 540.88,196.36 L 535.12,195.64 L 531.04,195.84 L 524.56,197.16 L 517.84,199.16 L 504.16,203.84 L 498.88,204.80 L 496.72,203.00 L 498.40,199.04 L 505.60,188.96 L 509.44,182.16 L 513.76,171.84 L 517.12,161.44 L 522.88,140.56 L 525.36,129.44 L 527.04,116.96 L 527.36,107.28 L 526.64,90.72 L 527.44,82.04 L 530.56,72.56 L 534.96,65.44 L 545.04,53.56 L 548.32,48.16 L 548.08,43.84 L 544.40,42.04 L 533.60,40.96 L 528.64,39.96 L 524.56,38.04 L 522.72,35.84 L 521.28,31.16 L 519.24,28.80 L 514.56,26.40 L 508.80,24.76 L 496.20,22.24 L 488.56,21.40 L 478.24,21.40 Z" fill="#2C4A66"/>
  <path d="M 1182.72,686.36 L 1181.28,685.64 L 1180.56,685.32 L 1179.84,685.08 L 1179.36,685.00 L 1178.64,685.00 L 1178.28,684.96 L 1177.92,684.84 L 1177.68,684.68 L 1177.32,684.32 L 1177.04,684.16 L 1176.56,684.04 L 1176.04,684.00 L 1174.96,684.00 L 1174.40,684.08 L 1173.80,684.32 L 1173.36,684.64 L 1172.64,685.36 L 1172.28,685.68 L 1171.92,685.92 L 1171.68,686.00 L 1171.32,686.00 L 1171.08,686.08 L 1170.72,686.32 L 1170.36,686.64 L 1169.64,687.36 L 1169.28,687.84 L 1168.92,688.56 L 1168.68,689.28 L 1168.32,690.72 L 1168.08,691.44 L 1167.72,692.16 L 1167.36,692.64 L 1166.64,693.36 L 1166.32,693.80 L 1166.08,694.40 L 1166.00,694.96 L 1166.00,696.04 L 1165.96,696.56 L 1165.84,697.04 L 1165.68,697.32 L 1165.32,697.68 L 1165.16,697.96 L 1165.04,698.44 L 1165.00,698.96 L 1165.00,700.04 L 1164.96,700.60 L 1164.84,701.20 L 1164.68,701.64 L 1164.32,702.36 L 1164.08,702.76 L 1163.72,703.24 L 1163.36,703.64 L 1162.64,704.36 L 1162.20,704.68 L 1161.60,704.92 L 1161.04,705.00 L 1159.96,705.00 L 1159.40,705.08 L 1158.80,705.32 L 1158.36,705.64 L 1157.64,706.36 L 1157.28,706.84 L 1156.92,707.56 L 1156.68,708.28 L 1156.32,709.72 L 1156.04,710.48 L 1155.56,711.32 L 1155.04,711.96 L 1153.96,713.04 L 1153.36,713.52 L 1152.64,713.88 L 1152.04,714.00 L 1150.96,714.00 L 1150.40,714.08 L 1149.80,714.32 L 1149.36,714.64 L 1148.64,715.36 L 1148.32,715.84 L 1148.08,716.56 L 1148.00,717.28 L 1148.00,718.72 L 1147.96,719.40 L 1147.84,720.00 L 1147.68,720.32 L 1147.32,720.68 L 1147.16,721.04 L 1147.04,721.76 L 1147.00,722.60 L 1147.00,724.40 L 1146.96,725.24 L 1146.84,725.96 L 1146.68,726.32 L 1146.32,726.68 L 1146.16,726.96 L 1146.04,727.44 L 1146.00,727.96 L 1146.00,729.04 L 1145.92,729.60 L 1145.68,730.20 L 1145.36,730.64 L 1144.64,731.36 L 1144.08,731.68 L 1143.12,731.92 L 1142.08,732.00 L 1139.92,732.00 L 1138.92,732.04 L 1138.08,732.16 L 1137.68,732.32 L 1137.32,732.68 L 1137.16,733.24 L 1137.04,734.56 L 1137.00,736.20 L 1137.00,739.80 L 1137.12,741.48 L 1137.48,742.92 L 1137.96,743.64 L 1139.04,744.36 L 1139.72,744.72 L 1140.68,745.08 L 1141.60,745.32 L 1143.40,745.68 L 1144.36,745.52 L 1145.44,744.68 L 1146.28,743.44 L 1147.72,740.56 L 1148.52,739.28 L 1149.48,738.32 L 1150.28,738.00 L 1151.72,738.00 L 1152.48,738.12 L 1153.32,738.48 L 1153.96,738.96 L 1155.04,740.04 L 1155.52,740.60 L 1155.88,741.20 L 1156.00,741.64 L 1156.00,742.36 L 1155.72,743.00 L 1154.88,744.20 L 1153.76,745.56 L 1151.24,748.44 L 1150.00,749.96 L 1148.80,751.64 L 1148.04,752.92 L 1146.96,755.08 L 1146.40,756.12 L 1145.80,757.08 L 1145.36,757.64 L 1144.64,758.36 L 1144.28,758.80 L 1143.92,759.40 L 1143.68,759.96 L 1143.32,761.04 L 1143.08,761.60 L 1142.72,762.20 L 1142.36,762.64 L 1141.64,763.36 L 1141.20,763.92 L 1140.60,764.88 L 1140.04,765.92 L 1138.96,768.08 L 1138.48,769.16 L 1138.12,770.24 L 1138.00,770.96 L 1138.00,772.04 L 1138.24,772.52 L 1138.96,772.88 L 1139.92,773.00 L 1142.08,773.00 L 1143.08,772.96 L 1143.92,772.84 L 1144.32,772.68 L 1144.68,772.32 L 1144.84,771.92 L 1144.96,771.08 L 1145.00,770.08 L 1145.00,767.92 L 1145.08,766.88 L 1145.32,765.92 L 1145.64,765.36 L 1146.36,764.64 L 1146.88,764.32 L 1147.72,764.08 L 1148.60,764.00 L 1150.40,764.00 L 1151.40,763.84 L 1152.60,763.36 L 1153.60,762.72 L 1155.40,761.28 L 1156.36,760.36 L 1157.44,759.04 L 1158.28,757.76 L 1159.72,755.24 L 1160.36,754.04 L 1160.84,752.96 L 1161.00,752.36 L 1161.00,751.64 L 1161.04,751.28 L 1161.16,750.92 L 1161.32,750.68 L 1161.68,750.32 L 1161.84,750.00 L 1161.96,749.40 L 1162.00,748.72 L 1162.00,747.28 L 1162.04,746.60 L 1162.16,746.00 L 1162.32,745.68 L 1162.68,745.32 L 1162.84,745.04 L 1162.96,744.56 L 1163.00,744.04 L 1163.00,742.96 L 1163.24,742.28 L 1163.96,741.32 L 1164.92,740.40 L 1167.08,738.60 L 1168.08,737.68 L 1168.92,736.72 L 1169.32,736.04 L 1169.68,734.96 L 1170.04,734.20 L 1170.76,733.00 L 1171.60,731.76 L 1173.40,729.24 L 1174.40,727.68 L 1175.60,725.52 L 1176.60,723.48 L 1178.40,719.52 L 1179.32,717.64 L 1180.28,715.96 L 1180.96,715.04 L 1182.04,713.96 L 1182.80,713.48 L 1184.00,713.12 L 1185.24,713.00 L 1187.76,713.00 L 1188.92,712.96 L 1189.88,712.84 L 1190.32,712.68 L 1190.68,712.32 L 1191.04,711.56 L 1191.76,709.64 L 1192.60,707.20 L 1194.40,701.80 L 1195.12,699.32 L 1195.48,697.28 L 1195.36,696.36 L 1194.64,695.64 L 1194.08,695.24 L 1193.12,694.76 L 1192.08,694.36 L 1189.92,693.64 L 1188.88,693.24 L 1187.92,692.76 L 1187.36,692.36 L 1186.64,691.64 L 1186.24,691.16 L 1185.76,690.44 L 1185.36,689.72 L 1184.64,688.28 L 1184.16,687.56 L 1183.44,686.84 Z" fill="#2C4A66"/>
</svg>
